<svg xmlns="http://www.w3.org/2000/svg" width="150" height="64.193" viewBox="0 0 150 64.193">
  <path id="path2" d="M28.1,34.826l2.051,6.023a45.4,45.4,0,0,0,2.23,5.861l.006,0c.142-.125,4.156-11.783,4.156-11.783h7.78l-9.386,27.35H29.533S23.762,45.6,23.785,45.541L17.76,62.065H12.407L3.139,34.826l7.742,0s4.241,12.022,4.3,12.022h0l4.232-12.027H28.1M.5,32.932l.852,2.5,9.268,27.239.436,1.283h8.033l.454-1.244L23.722,51.24c.361,1.049.75,2.179,1.14,3.309q1.44,4.175,2.885,8.347l.44,1.271h8.106l.439-1.278,9.386-27.35.86-2.507H35.2l-.44,1.276q-1.21,3.513-2.435,7.02-.19-.545-.376-1.09L29.9,34.216l-.437-1.282H18.071L17.626,34.2l-2.473,7.027q-1.248-3.51-2.487-7.023l-.446-1.262H10.883L3.14,32.934ZM147.928,34.72l-.018,7.169s-7.722-.026-11.647-.026c-1.306,0-2.192,0-2.234.011-.676.123-1.107,1.562-.915,2.193a12.441,12.441,0,0,0,1.569,2.321c.764.959,2.02,2.527,2.786,3.484,1.968,2.456,2.238,2.94,2.42,4.35a7.289,7.289,0,0,1-2.8,6.4c-2.016,1.639-1.927,1.651-16.886,1.651h-.657c-9.1,0-13.909-.078-14.61-.234-1.244-.282-3.227-1.9-8.467-6.926-1.885-1.806-3.622-3.388-3.711-3.388,0,0,0,0,0,0L92.7,62.278,84.2,62.241l-.053-27.2H103.09c5.708.206,9.571,5.893,8.8,9.519a10.724,10.724,0,0,1-.989,2.649,11.073,11.073,0,0,1-4.261,3.688c-.579.262-1.052.567-1.052.676a7.868,7.868,0,0,0,2.621,2.581c.61.255,2.387.312,10.222.312h2.509c7.876,0,7.479-.057,8.088-1.358.426-.906.1-1.447-2.895-4.823-3.8-3.778-3.4-5.588-3.425-6.924-.054-1.6,1.207-6.64,7.762-6.64l17.458,0M97.053,47.286c3.636,0,4.374-.056,5.148-.392a3.288,3.288,0,0,0,.246-5.978c-.549-.327-1.254-.38-5.195-.4l-4.561-.024c.038.035-.014,6.522-.014,6.522a22.067,22.067,0,0,0,4.376.275m52.773-14.458H130.471a9.664,9.664,0,0,0-7.249,2.753,8.608,8.608,0,0,0-2.4,5.826c0,.1,0,.2,0,.313-.017,1.97.273,4.2,3.941,7.864.724.816,1.937,2.185,2.4,2.866-1,.123-3.544.123-6.213.123h-2.509c-4.708,0-8.679-.014-9.492-.174a4.563,4.563,0,0,1-.449-.354,12.817,12.817,0,0,0,4.046-3.882,12.615,12.615,0,0,0,1.206-3.209,9.268,9.268,0,0,0-2.129-7.349,11.3,11.3,0,0,0-8.456-4.454h-20.9l0,1.9.053,27.2,0,1.88,1.88.008,8.492.037,1.889.008.012-1.889.037-6.317.537.512c5.731,5.5,7.654,7.021,9.359,7.406.468.1,1.243.277,15.027.281h.657c7.463,0,11.209,0,13.436-.215a6.962,6.962,0,0,0,4.6-1.828l.041-.033a9.155,9.155,0,0,0,3.481-8.114c-.248-1.918-.756-2.715-2.82-5.291l-.614-.766q-1.086-1.355-2.171-2.714c-.47-.588-.84-1.11-1.061-1.452h1.163c3.878,0,11.564.025,11.642.026l1.894.006,0-1.894.018-7.169Zm-55.244,12.5.009-1.551c0-.473,0-.947,0-1.381l2.647.014a37.483,37.483,0,0,1,4.256.147,1.6,1.6,0,0,1,.853,1.434,1.35,1.35,0,0,1-.9,1.171c-.414.18-1.074.236-4.392.236-1.053,0-1.865-.031-2.472-.069ZM66.945,34.609,76.476,62.03l-7.766.035L67.42,57.947l-13.886-.111-1.225,4.123-7.688-.081,9.41-27.258,12.913-.012M60.7,38.629c-.02.079-1.217,3.364-2.418,6.648-1.211,3.312-2.426,6.624-2.443,6.649h0c.032-.009,4.333-.019,7.089-.019,1.29,0,2.241,0,2.259.007h0c-.049-.125-4.473-13.125-4.487-13.285h0m7.591-5.914H66.943l-12.913.012H52.682L52.242,34l-9.41,27.258-.857,2.482,2.626.027,7.688.081,1.427.015.407-1.368.82-2.759,11.083.089.877,2.8.418,1.334,1.4-.006,7.766-.035,2.648-.012-.87-2.5L68.732,33.989Zm-9.728,17.3c.358-.977.841-2.3,1.5-4.09l.566-1.548.513,1.513c.153.451.824,2.43,1.4,4.123C60.826,50.015,59.536,50.015,58.562,50.017Zm11.6-48.138V8.645H56.607V29.336H48.529V8.628l-15.816.045a2,2,0,0,0-2.162,2.1c0,.715.466,1.429,3.026,4.67a47.677,47.677,0,0,1,3.387,4.665c1.1,2.527-.322,6.463-2.907,8.062-1.843,1.139-1.528,1.167-15.212,1.167H1.892v-7.6H25.051l.684-.475a1.964,1.964,0,0,0,.83-1.37c.142-.871.069-.984-2.791-4.206-3.38-3.809-3.738-4.5-3.563-6.935.2-2.775,2.673-6.806,7-6.806l42.949-.064m1.892-1.9-1.9,0L27.205.051a8.517,8.517,0,0,0-6.468,3.01,9.873,9.873,0,0,0-2.414,5.554c-.23,3.2.506,4.351,4.035,8.327,1.024,1.154,2,2.251,2.323,2.717a.3.3,0,0,1-.013.038l-.017.012-.194.135H0V31.229H18.844c6.747,0,10.077-.006,12.039-.15a7.168,7.168,0,0,0,4.034-1.216l.134-.083c3.374-2.086,5.112-7.056,3.648-10.426a50.447,50.447,0,0,0-3.637-5.083,34.861,34.861,0,0,1-2.615-3.557.625.625,0,0,1,.029-.126.973.973,0,0,1,.237-.023l13.924-.04v20.7H58.5V10.537H72.05ZM92.171,2.1l9.5,27.492-7.752-.043L92.665,25.43l-13.824-.062-1.235,3.967H69.713L79.113,2.1H92.171M81.1,19.514l9.415-.012h0c.033,0-4.575-13.531-4.606-13.541S80.991,19.514,81.1,19.514M93.519.207H77.765l-.44,1.275-9.4,27.237-.866,2.51H79l.414-1.33.819-2.631,11.031.049.851,2.785.407,1.332,1.393.008,7.752.043,2.672.015-.873-2.525L93.962,1.48ZM83.726,17.619q1.056-3,2.132-5.988,1.02,2.99,2.032,5.982ZM118.865,2.1c6.132,0,10.387.088,11.206.229a8.131,8.131,0,0,1,4.884,2.891,6.547,6.547,0,0,1,1.824,4.622,7.892,7.892,0,0,1-4.187,7.6c-.858.513-1.74,1.012-1.961,1.112-.338.154-.293.3.312,1.01a12.371,12.371,0,0,0,1.5,1.445l.795.617,14.685.211.144,7.494h-9c-6.964,0-9.192-.064-9.846-.284-.977-.331-3.327-2.323-8.107-6.87L117.7,18.937l.036,10.4h-8.763V2.1h9.89m-1.291,12.246h4.653c4.528,0,4.67-.014,5.316-.5a3.139,3.139,0,0,0,1.441-3.127,2.89,2.89,0,0,0-2.034-2.739c-.769-.336-1.509-.39-5.138-.39h-4.237v6.756M118.865.207h-11.78V31.228h12.554l-.006-1.9-.021-5.965.2.189c5.91,5.623,7.654,6.9,8.8,7.291.883.3,2.361.384,10.453.384H150l-.037-1.929-.144-7.494-.034-1.829-1.829-.026-14.052-.2-.294-.229c-.093-.073-.207-.17-.329-.279l.286-.17a9.811,9.811,0,0,0,5.1-9.38,8.4,8.4,0,0,0-2.252-5.677A10.087,10.087,0,0,0,130.4.464C129.1.24,122.617.207,118.865.207Zm.6,9.275h2.344c3.318,0,3.975.055,4.381.232.769.333.847.495.907,1.172a1.3,1.3,0,0,1-.691,1.446l-.053.039c-.441.082-2.078.082-4.127.082h-2.761Z" transform="translate(0 0.016)" fill="#ffc500"/>
</svg>
